# Blender v2.82 (sub 7) OBJ File: 'Ground.blend'
# www.blender.org
mtllib Ground.mtl
o Ground_Plane
v -72.646065 0.000000 59.757687
v 79.921616 0.000000 59.757687
v -72.646065 0.000000 -93.645607
v 79.921616 0.000000 -93.645607
v -72.646065 0.000000 -21.620481
v 79.921616 0.000000 -12.911638
v 79.921616 0.000000 -21.620489
v -1.217342 0.000000 59.757603
v 7.547584 0.000000 59.757603
v 7.547583 0.000000 -93.645584
v -1.217342 0.000000 -93.645584
v 7.547583 0.000000 -12.911635
v -1.217342 0.000000 -12.911632
v 7.547583 0.000000 -21.620481
v -1.217342 0.000000 -21.620481
v -72.646065 0.242363 -12.911632
v -72.646065 0.242363 59.757687
v 7.547584 0.242363 59.757603
v 79.921616 0.242363 59.757687
v 79.921616 0.242363 -21.620489
v 79.921616 0.242363 -93.645607
v -1.217342 0.242363 -93.645584
v -72.646065 0.242363 -93.645607
v -72.646065 0.242363 -21.620481
v 79.921616 0.242363 -12.911638
v -1.217342 0.242363 -12.911632
v -1.217342 0.242363 -21.620481
v -1.217342 0.242363 59.757603
v 7.547583 0.242363 -93.645584
v 7.547583 0.242363 -12.911635
v 7.547583 0.242363 -21.620481
v -72.646065 0.000000 -12.911632
vt 0.933756 0.989778
vt 0.690915 0.931885
vt 0.694104 0.928459
vt 0.934736 0.985533
vt 0.697291 0.986824
vt 0.700161 0.705333
vt 0.706436 0.711105
vt 0.702384 0.980056
vt 0.655437 0.729483
vt 0.934736 0.628584
vt 0.932059 0.979544
vt 0.688966 0.920909
vt 0.692173 0.917480
vt 0.933053 0.975294
vt 0.973628 0.684322
vt 0.973628 0.953610
vt 0.967771 0.949226
vt 0.969024 0.689344
vt 0.649836 0.726189
vt 0.647614 0.713978
vt 0.930609 0.608910
vt 0.933053 0.615406
vt 0.653243 0.717270
vt 0.932315 0.622099
vt 0.946066 0.972300
vt 0.939644 0.965169
vt 0.940915 0.693204
vt 0.946066 0.687610
vt 0.672418 0.937895
vt 0.677084 0.933741
vt 0.671738 0.665274
vt 0.677722 0.670708
vt 0.577370 0.992255
vt 0.010237 0.991957
vt 0.021910 0.014875
vt 0.589042 0.015173
vt 0.024926 0.017914
vt 0.583792 0.017837
vt 0.586847 0.989288
vt 0.027980 0.989365
vt 0.627295 0.104534
vt 0.998382 0.108561
vt 0.994329 0.482037
vt 0.623242 0.478009
vt 0.056520 0.018742
vt 0.613439 0.020011
vt 0.563210 0.990349
vt 0.006289 0.989081
vt 0.624188 0.013808
vt 0.569860 0.990418
vt 0.001923 0.989029
vt 0.056250 0.012416
vn -0.0000 0.0000 -1.0000
vn -1.0000 0.0000 0.0000
vn 0.0000 1.0000 0.0000
vn 1.0000 0.0000 0.0000
vn -0.0000 0.0000 1.0000
usemtl Material.002
s off
f 4/1/1 10/2/1 29/3/1 21/4/1
f 3/5/2 5/6/2 24/7/2 23/8/2
f 31/9/3 20/10/3 21/4/3 29/3/3
f 6/11/1 12/12/1 30/13/1 25/14/1
f 15/15/4 11/16/4 22/17/4 27/18/4
f 10/2/2 14/19/2 31/9/2 29/3/2
f 9/20/5 2/21/5 19/22/5 18/23/5
f 14/19/5 7/24/5 20/10/5 31/9/5
f 27/18/3 22/17/3 23/8/3 24/7/3
f 15/15/5 27/18/5 24/7/5 5/6/5
f 11/16/1 3/5/1 23/8/1 22/17/1
f 13/25/4 26/26/4 28/27/4 8/28/4
f 32/29/1 16/30/1 26/26/1 13/25/1
f 1/31/5 8/28/5 28/27/5 17/32/5
f 12/12/2 9/20/2 18/23/2 30/13/2
f 1/31/2 17/32/2 16/30/2 32/29/2
f 17/32/3 28/27/3 26/26/3 16/30/3
f 18/23/3 19/22/3 25/14/3 30/13/3
usemtl Material.003
f 15/33/3 14/34/3 10/35/3 11/36/3
f 8/37/3 9/38/3 12/39/3 13/40/3
f 12/41/3 14/42/3 15/43/3 13/44/3
f 6/45/3 7/46/3 14/47/3 12/48/3
f 32/49/3 13/50/3 15/51/3 5/52/3
