# Blender v2.82 (sub 7) OBJ File: 'UnityTest.blend'
# www.blender.org
mtllib UnityTest.mtl
o Cube
v 1.149442 3.380645 -1.881791
v 1.149442 1.380645 -1.881791
v 1.149442 3.380645 0.118209
v 1.149442 1.380645 0.118209
v -0.850558 3.380645 -1.881791
v -0.850558 1.380645 -1.881791
v -0.850558 3.380645 0.118209
v -0.850558 1.380645 0.118209
vt 0.375000 0.750000
vt 0.625000 0.750000
vt 0.625000 1.000000
vt 0.375000 1.000000
vt 0.375000 0.250000
vt 0.625000 0.250000
vt 0.625000 0.500000
vt 0.375000 0.500000
vt 0.875000 0.500000
vt 0.875000 0.750000
vt 0.375000 0.000000
vt 0.625000 0.000000
vt 0.125000 0.500000
vt 0.125000 0.750000
vn 0.0000 0.0000 1.0000
vn 0.0000 0.0000 -1.0000
vn 0.0000 1.0000 0.0000
vn -1.0000 0.0000 0.0000
vn 1.0000 0.0000 0.0000
vn 0.0000 -1.0000 0.0000
usemtl Material
s off
f 4/1/1 3/2/1 7/3/1 8/4/1
f 6/5/2 5/6/2 1/7/2 2/8/2
usemtl Material.001
f 1/7/3 5/9/3 7/10/3 3/2/3
usemtl Material.002
f 8/11/4 7/12/4 5/6/4 6/5/4
usemtl Material.003
f 2/8/5 1/7/5 3/2/5 4/1/5
usemtl Material.004
f 6/13/6 2/8/6 4/1/6 8/14/6
